# xmcd
#
# Track frame offsets:
#	150
#	33905
#	53021
#	66130
#	89050
#	109098
#	132227
#	153459
#	176154
#	200535
#	216688
#
# Disc length: 3094 seconds
# Revision: 0
# Processed by: cddbd v1.5.2PL0 Copyright (c) Steve Scherf et al.
# Submitted via: dBpowerAMP V12.0
#
DISCID=a50c140b
DTITLE=Seth Freeman - Seth Freeman
DYEAR=2013
DGENRE=Blues
TTITLE0=Rollin' and Tumblin'
TTITLE1=Love Won't Let Me Go
TTITLE2=Back at the Chicken Shack
TTITLE3=Good Love
TTITLE4=Put the Blame on Me
TTITLE5=Red Dress
TTITLE6=Aurora
TTITLE7=A Dream Worth Livin' In
TTITLE8=In the Reins
TTITLE9=Crazy Bout Ya Baby
TTITLE10=Pain and Agony
EXTD=
EXTT0=
EXTT1=
EXTT2=
EXTT3=
EXTT4=
EXTT5=
EXTT6=
EXTT7=
EXTT8=
EXTT9=
EXTT10=
PLAYORDER=
